<?xml version="1.0" encoding="utf-8"?>
<!-- Generator: Adobe Illustrator 14.0.0, SVG Export Plug-In . SVG Version: 6.00 Build 43363)  -->
<!DOCTYPE svg PUBLIC "-//W3C//DTD SVG 1.1//EN" "http://www.w3.org/Graphics/SVG/1.1/DTD/svg11.dtd">
<svg version="1.1" id="Layer_1" opacity="0.3" xmlns="http://www.w3.org/2000/svg" xmlns:xlink="http://www.w3.org/1999/xlink"
	 x="0px" y="0px" width="612px" height="792px" viewBox="0 0 612 792" enable-background="new 0 0 612 792" xml:space="preserve">
<path fill="#00ACC1" d="M297.065,575.659c0,0-7.038,20.973-49.486,25.495c-42.448,4.529-60.558-4.522-60.558-4.522
	s28.299-22.063,55.466-23.201C269.653,572.299,297.065,575.659,297.065,575.659z"/>
<path fill="#00ACC1" d="M297.065,575.659c0,0,3.194-21.94-31.959-46.157c-35.159-24.211-55.398-24.884-55.398-24.884
	s11.616,29.896,39.908,47.399C272.738,566.319,297.065,575.659,297.065,575.659z"/>
<path fill="#00ACC1" d="M246.728,560.126c0,0-21.646-9.768-54.333-9.768s-57.302,16.983-57.302,16.983s24.192,9.755,59.003,9.755
	C228.9,577.104,246.728,560.126,246.728,560.126z"/>
<path fill="#00ACC1" d="M206.715,539.33c0,0-1.756-23.685-17.356-52.399c-15.6-28.727-42.271-42.252-42.271-42.252
	s2.968,25.918,19.584,56.506C183.288,531.766,206.715,539.33,206.715,539.33z"/>
<path fill="#00ACC1" d="M190.393,536.374c0,0-18.758-14.565-50.533-22.215c-31.775-7.656-59.682,3.084-59.682,3.084
	s21.236,15.165,55.08,23.317C169.089,548.706,190.393,536.374,190.393,536.374z"/>
<path fill="#00ACC1" d="M162.266,511.123c0,0-11.677-20.673-38.03-40.013C97.883,451.771,68,450.891,68,450.891
	s13.733,22.185,41.787,42.784C137.847,514.269,162.266,511.123,162.266,511.123z"/>
<path fill="#00ACC1" d="M134.34,468.602c0,0,7.907-21.169,5.838-52.191c-2.063-31.028-19.731-53.33-19.731-53.33
	s-7.748,23.586-5.551,56.634C117.1,452.744,134.34,468.602,134.34,468.602z"/>
<path fill="#00ACC1" d="M112.167,448.546c0,0-8.127-18.837-28.979-37.87c-20.857-19.04-46.451-22.546-46.451-22.546
	s9.749,20.324,31.958,40.594C90.9,448.993,112.167,448.546,112.167,448.546z"/>
<path fill="#00ACC1" d="M99.591,406.796c0,0-1.004-20.496-13.856-45.637c-12.852-25.141-35.587-37.405-35.587-37.405
	s2.007,22.448,15.691,49.223C79.523,399.758,99.591,406.796,99.591,406.796z"/>
<path fill="#00ACC1" d="M90.814,345.645c0,0,1.763-20.441-7.588-47.081c-9.358-26.646-30.233-41.854-30.233-41.854
	s-1.034,22.515,8.923,50.881C71.873,335.975,90.814,345.645,90.814,345.645z"/>
<path fill="#00ACC1" d="M99.285,305.351c0,0,9.382-18.244,10.833-46.445c1.45-28.201-12.105-50.19-12.105-50.19
	s-9.498,20.435-11.046,50.465C85.417,289.218,99.285,305.351,99.285,305.351z"/>
<path fill="#00ACC1" d="M122.406,256.862c0,0,12.222-16.475,18.237-44.064c6.01-27.589-3.788-51.494-3.788-51.494
	s-12.699,18.623-19.101,48.005C111.354,238.691,122.406,256.862,122.406,256.862z"/>
<path fill="#00ACC1" d="M100.662,380.498c0,0,15.282-13.685,26.702-39.511s6.616-51.212,6.616-51.212s-16.175,15.704-28.335,43.201
	C93.477,360.479,100.662,380.498,100.662,380.498z"/>
<path fill="#00ACC1" d="M117.553,288.19c0,0,19.529-6.285,40.478-25.22c20.942-18.936,26.885-44.076,26.885-44.076
	s-21.163,7.76-43.464,27.925C119.138,266.984,117.553,288.19,117.553,288.19z"/>
<path fill="#00ACC1" d="M146.409,231.696c0,0,18.482-8.923,36.616-30.551c18.14-21.641,20.563-47.363,20.563-47.363
	s-19.89,10.594-39.211,33.642C145.068,210.466,146.409,231.696,146.409,231.696z"/>
<path fill="#00ACC1" d="M300.002,588.933c0,28.403-46.726,59.31-46.726,44.218C253.276,618.058,300.002,599,300.002,588.933z"/>
<path fill="#00ACC1" d="M327.071,588.933c0,28.403,46.726,59.31,46.726,44.218C373.797,618.058,327.071,599,327.071,588.933z"/>
<path fill="#00ACC1" d="M330.009,575.659c0,0,7.038,20.973,49.486,25.495c42.448,4.529,60.558-4.522,60.558-4.522
	s-28.299-22.063-55.466-23.201C357.42,572.299,330.009,575.659,330.009,575.659z"/>
<path fill="#00ACC1" d="M330.009,575.659c0,0-3.194-21.94,31.959-46.157c35.159-24.211,55.397-24.884,55.397-24.884
	s-11.609,29.896-39.908,47.399C354.33,566.319,330.009,575.659,330.009,575.659z"/>
<path fill="#00ACC1" d="M380.34,560.126c0,0,21.652-9.768,54.327-9.768c32.693,0,57.313,16.983,57.313,16.983
	s-24.198,9.755-59.009,9.755C398.167,577.104,380.34,560.126,380.34,560.126z"/>
<path fill="#00ACC1" d="M420.358,539.33c0,0,1.757-23.685,17.351-52.399c15.6-28.727,42.271-42.252,42.271-42.252
	s-2.969,25.918-19.572,56.506C443.786,531.766,420.358,539.33,420.358,539.33z"/>
<path fill="#00ACC1" d="M436.681,536.374c0,0,18.751-14.565,50.532-22.215c31.775-7.656,59.683,3.084,59.683,3.084
	s-21.236,15.165-55.074,23.317C457.984,548.706,436.681,536.374,436.681,536.374z"/>
<path fill="#00ACC1" d="M464.802,511.123c0,0,11.683-20.673,38.029-40.013c26.359-19.339,56.243-20.22,56.243-20.22
	s-13.728,22.185-41.787,42.784C489.227,514.269,464.802,511.123,464.802,511.123z"/>
<path fill="#00ACC1" d="M492.733,468.602c0,0-7.907-21.169-5.845-52.191c2.068-31.028,19.737-53.33,19.737-53.33
	s7.748,23.586,5.545,56.634C509.974,452.744,492.733,468.602,492.733,468.602z"/>
<path fill="#00ACC1" d="M514.906,448.546c0,0,8.127-18.837,28.979-37.87c20.856-19.04,46.457-22.546,46.457-22.546
	s-9.762,20.324-31.965,40.594C536.167,448.993,514.906,448.546,514.906,448.546z"/>
<path fill="#00ACC1" d="M527.471,406.796c0,0,0.997-20.496,13.855-45.637c12.858-25.141,35.588-37.405,35.588-37.405
	s-2.001,22.448-15.686,49.223C547.544,399.758,527.471,406.796,527.471,406.796z"/>
<path fill="#00ACC1" d="M536.259,345.645c0,0-1.769-20.441,7.583-47.081c9.352-26.646,30.232-41.854,30.232-41.854
	s1.041,22.515-8.929,50.881C555.194,335.975,536.259,345.645,536.259,345.645z"/>
<path fill="#00ACC1" d="M527.789,305.351c0,0-9.382-18.244-10.839-46.445c-1.444-28.201,12.105-50.19,12.105-50.19
	s9.504,20.435,11.053,50.465C541.65,289.218,527.789,305.351,527.789,305.351z"/>
<path fill="#00ACC1" d="M504.661,256.862c0,0-12.222-16.475-18.231-44.064s3.782-51.494,3.782-51.494s12.693,18.623,19.101,48.005
	C515.727,238.691,504.661,256.862,504.661,256.862z"/>
<path fill="#00ACC1" d="M526.418,380.498c0,0-15.294-13.685-26.714-39.511s-6.616-51.212-6.616-51.212s16.176,15.704,28.342,43.201
	C533.591,360.479,526.418,380.498,526.418,380.498z"/>
<path fill="#00ACC1" d="M509.521,288.19c0,0-19.529-6.285-40.472-25.22c-20.955-18.936-26.891-44.076-26.891-44.076
	s21.156,7.76,43.47,27.925C507.93,266.984,509.521,288.19,509.521,288.19z"/>
<path fill="#00ACC1" d="M480.652,231.696c0,0-18.476-8.923-36.609-30.551c-18.14-21.641-20.569-47.363-20.569-47.363
	s19.902,10.594,39.217,33.642C482.005,210.466,480.652,231.696,480.652,231.696z"/>
</svg>
